<?xml version="1.0" encoding="UTF-8"?>
<svg xmlns="http://www.w3.org/2000/svg" xmlns:xlink="http://www.w3.org/1999/xlink" viewBox="0 0 30 30" width="30px" height="30px">
<g id="surface213158105">
<path style=" stroke:none;fill-rule:nonzero;fill:rgb(60.000002%,60.000002%,60.000002%);fill-opacity:1;" d="M 22.808594 2.398438 C 22.542969 2.398438 22.308594 2.5625 22.226562 2.816406 L 19.246094 12 L 10.753906 12 L 7.773438 2.816406 C 7.691406 2.574219 7.46875 2.40625 7.214844 2.398438 C 6.957031 2.394531 6.730469 2.550781 6.636719 2.789062 L 3.042969 12.382812 C 3.039062 12.382812 3.039062 12.386719 3.039062 12.390625 L 1.238281 17.1875 C 1.144531 17.441406 1.226562 17.726562 1.449219 17.886719 L 14.644531 27.480469 L 14.644531 27.484375 C 14.648438 27.484375 14.648438 27.484375 14.648438 27.488281 C 14.65625 27.492188 14.664062 27.496094 14.671875 27.5 C 14.679688 27.507812 14.6875 27.511719 14.699219 27.519531 C 14.699219 27.519531 14.699219 27.519531 14.703125 27.519531 C 14.703125 27.519531 14.703125 27.523438 14.707031 27.523438 C 14.710938 27.523438 14.710938 27.527344 14.714844 27.527344 C 14.71875 27.53125 14.722656 27.53125 14.726562 27.535156 C 14.738281 27.539062 14.75 27.546875 14.765625 27.550781 C 14.765625 27.550781 14.765625 27.550781 14.765625 27.554688 C 14.78125 27.558594 14.792969 27.5625 14.804688 27.566406 C 14.808594 27.566406 14.808594 27.566406 14.808594 27.570312 C 14.820312 27.570312 14.828125 27.574219 14.839844 27.578125 C 14.84375 27.578125 14.851562 27.582031 14.855469 27.582031 C 14.867188 27.585938 14.878906 27.589844 14.890625 27.589844 C 14.910156 27.59375 14.921875 27.59375 14.9375 27.597656 C 14.960938 27.597656 14.988281 27.601562 15.011719 27.601562 C 15.035156 27.597656 15.054688 27.597656 15.078125 27.59375 C 15.085938 27.59375 15.09375 27.59375 15.101562 27.589844 C 15.101562 27.589844 15.105469 27.589844 15.109375 27.589844 C 15.113281 27.589844 15.113281 27.589844 15.121094 27.589844 C 15.121094 27.589844 15.125 27.585938 15.128906 27.585938 C 15.132812 27.582031 15.140625 27.582031 15.144531 27.582031 C 15.15625 27.578125 15.160156 27.578125 15.167969 27.574219 C 15.171875 27.574219 15.175781 27.574219 15.179688 27.570312 C 15.179688 27.570312 15.183594 27.570312 15.183594 27.570312 C 15.195312 27.566406 15.207031 27.5625 15.214844 27.558594 C 15.226562 27.554688 15.238281 27.550781 15.246094 27.546875 C 15.25 27.546875 15.25 27.546875 15.25 27.542969 C 15.253906 27.542969 15.253906 27.542969 15.257812 27.542969 C 15.261719 27.539062 15.265625 27.535156 15.273438 27.535156 C 15.285156 27.527344 15.296875 27.519531 15.308594 27.511719 C 15.3125 27.511719 15.316406 27.507812 15.320312 27.507812 C 15.320312 27.507812 15.324219 27.503906 15.324219 27.503906 C 15.335938 27.496094 15.34375 27.492188 15.355469 27.484375 L 15.359375 27.476562 L 28.554688 17.886719 C 28.773438 17.726562 28.855469 17.441406 28.761719 17.1875 L 26.96875 12.40625 C 26.964844 12.402344 26.960938 12.394531 26.960938 12.390625 L 23.363281 2.789062 C 23.273438 2.558594 23.054688 2.402344 22.808594 2.398438 Z M 4.839844 13.199219 L 9.882812 13.199219 L 13.398438 24.007812 Z M 20.117188 13.199219 L 25.160156 13.199219 L 16.601562 24.007812 Z M 3.789062 13.804688 L 11.8125 23.941406 L 2.523438 17.183594 Z M 26.210938 13.804688 L 27.476562 17.183594 L 18.1875 23.941406 Z M 26.210938 13.804688 "/>
</g>
</svg>
